<svg 
width="289.455" 
height="66.895" 
viewBox="0 0 289.455 66.895" 
xmlns="http://www.w3.org/2000/svg">

<g 
id="svgGroup" 
stroke-linecap="round" 
fill-rule="evenodd" 
font-size="9pt" 
stroke="#000" 
stroke-width="0.25mm" 
fill="#000" 
style="stroke:#000;stroke-width:0.25mm;fill:#000"
>
<path 
d="M 36.622 66.895 L 21.583 66.895 A 29.077 29.077 0 0 1 
15.97 66.379 A 21.517 21.517 0 0 1 10.157 
64.38 Q 5.323 61.866 2.662 57.618 Q 0.001 53.37 
0.001 48.291 L 0.001 18.604 A 17.187 17.187 0 0 1 2.662 
9.253 A 18.53 18.53 0 0 1 8.699 3.343 A 22.491 22.491 0 0 1 
10.157 2.515 Q 14.991 0 21.583 0 L 36.622 0 A 29.155 29.155 
0 0 1 42.24 0.517 A 21.71 21.71 0 0 1 48.072 2.515 A 20.115 
20.115 0 0 1 52.94 5.987 A 17.596 17.596 0 0 1 55.567 9.253 
A 17.305 17.305 0 0 1 58.204 18.604 L 58.204 48.291 A 17.342 
17.342 0 0 1 55.567 57.618 A 18.242 18.242 0 0 1 49.536 63.552 
A 22.269 22.269 0 0 1 48.072 64.38 Q 43.214 66.895 36.622 66.895 
Z M 94.434 66.895 L 79.395 66.895 A 29.077 29.077 0 0 1 73.782 66.379 
A 21.517 21.517 0 0 1 67.97 64.38 Q 63.136 61.866 60.474 57.618 Q 
57.813 53.37 57.813 48.291 L 57.813 18.604 A 17.187 17.187 0 0 1 60.474 
9.253 A 18.53 18.53 0 0 1 66.512 3.343 A 22.491 22.491 0 0 1 67.97 2.515 
Q 72.804 0 79.395 0 L 94.434 0 A 29.155 29.155 0 0 1 100.052 0.517 
A 21.71 21.71 0 0 1 105.885 2.515 A 20.115 20.115 0 0 1 110.753 
5.987 A 17.596 17.596 0 0 1 113.38 9.253 A 17.305 17.305 0 0 1 
116.016 18.604 L 116.016 48.291 A 17.342 17.342 0 0 1 113.38 57.618 
A 18.242 18.242 0 0 1 107.349 63.552 A 22.269 22.269 0 0 1 105.885 
64.38 Q 101.026 66.895 94.434 66.895 Z M 152.247 66.895 L 137.208 
66.895 A 29.077 29.077 0 0 1 131.595 66.379 A 21.517 21.517 0 0 1 
125.782 64.38 Q 120.948 61.866 118.287 57.618 Q 115.626 53.37 
115.626 48.291 L 115.626 18.604 A 17.187 17.187 0 0 1 118.287 
9.253 A 18.53 18.53 0 0 1 124.324 3.343 A 22.491 22.491 0 0 1 
125.782 2.515 Q 130.616 0 137.208 0 L 152.247 0 A 29.155 29.155 
0 0 1 157.865 0.517 A 21.71 21.71 0 0 1 163.697 2.515 A 20.115 
20.115 0 0 1 168.565 5.987 A 17.596 17.596 0 0 1 171.192 9.253 
A 17.305 17.305 0 0 1 173.829 18.604 L 173.829 48.291 A 17.342 
17.342 0 0 1 171.192 57.618 A 18.242 18.242 0 0 1 165.161 63.552 
A 22.269 22.269 0 0 1 163.697 64.38 Q 158.839 66.895 152.247 66.895 
Z M 210.059 66.895 L 195.02 66.895 A 29.077 29.077 0 0 1 189.407 66.379 
A 21.517 21.517 0 0 1 183.595 64.38 Q 178.761 61.866 176.099 57.618 
Q 173.438 53.37 173.438 48.291 L 173.438 18.604 A 17.187 17.187 0 0 1 
176.099 9.253 A 18.53 18.53 0 0 1 182.137 3.343 A 22.491 22.491 0 0 1 
183.595 2.515 Q 188.429 0 195.02 0 L 210.059 0 A 29.155 29.155 0 0 1 
215.677 0.517 A 21.71 21.71 0 0 1 221.51 2.515 A 20.115 20.115 0 0 1 
226.378 5.987 A 17.596 17.596 0 0 1 229.005 9.253 A 17.305 17.305 0 0 1 
231.641 18.604 L 231.641 48.291 A 17.342 17.342 0 0 1 229.005 57.618 
A 18.242 18.242 0 0 1 222.974 63.552 A 22.269 22.269 0 0 1 221.51 
64.38 Q 216.651 66.895 210.059 66.895 Z M 267.872 66.895 L 252.833 
66.895 A 29.077 29.077 0 0 1 247.22 66.379 A 21.517 21.517 0 0 1 
241.407 64.38 Q 236.573 61.866 233.912 57.618 Q 231.251 53.37 231.251 
48.291 L 231.251 18.604 A 17.187 17.187 0 0 1 233.912 9.253 A 18.53 18.53 
0 0 1 239.949 3.343 A 22.491 22.491 0 0 1 241.407 2.515 Q 246.241 0 
252.833 0 L 267.872 0 A 29.155 29.155 0 0 1 273.49 0.517 A 21.71 21.71 0 0 1 
279.322 2.515 A 20.115 20.115 0 0 1 284.19 5.987 A 17.596 17.596 0 0 1 
286.817 9.253 A 17.305 17.305 0 0 1 289.454 18.604 L 289.454 48.291 
A 17.342 17.342 0 0 1 286.817 57.618 A 18.242 18.242 0 0 1 280.786 
63.552 A 22.269 22.269 0 0 1 279.322 64.38 Q 274.464 66.895 267.872 
66.895 Z M 74.024 4.395 L 74.024 44.776 L 79.2 44.776 L 79.2 26.612 L 
99.512 26.612 L 99.512 44.776 L 104.591 44.776 L 104.591 4.395 L 
99.512 4.395 L 99.512 21.485 L 79.2 21.485 L 79.2 4.395 L 74.024 
4.395 Z M 249.854 44.092 L 255.567 44.776 L 268.262 44.776 L 273.243 
44.19 L 276.368 41.114 L 277.052 36.914 L 277.052 29.493 L 276.368 
25.293 L 273.243 22.217 L 268.165 21.68 L 257.227 21.68 L 254.249 
21.094 L 253.565 18.213 L 253.565 13.086 L 254.249 10.205 L 257.471 
9.571 L 269.874 9.571 L 274.464 10.498 L 275.636 5.176 L 269.971 
4.395 L 257.13 4.395 L 252.247 5.079 L 249.073 8.204 L 248.438 12.305 
L 248.438 18.995 L 249.073 23.096 L 252.247 26.172 L 257.13 26.807 L 
268.165 26.807 L 271.143 27.295 L 271.827 29.981 L 271.827 36.377 L 
271.143 39.112 L 267.97 39.6 L 255.86 39.6 L 251.075 38.819 L 249.854 
44.092 Z M 19.288 44.19 L 24.22 44.776 L 35.987 44.776 L 41.7 44.092 L 
40.479 38.819 L 35.889 39.6 L 24.512 39.6 L 21.29 39.112 L 20.606 36.182 
L 20.606 12.696 L 21.095 10.01 L 24.512 9.473 L 35.694 9.473 L 40.723 
10.303 L 41.7 5.079 L 35.987 4.395 L 24.22 4.395 L 19.19 4.981 L 16.114 
8.106 L 15.382 12.207 L 15.382 37.012 L 16.114 41.114 L 19.288 44.19 Z M 
192.237 42.579 L 197.12 43.213 L 209.425 43.213 L 215.137 42.481 L 213.917 
37.207 L 209.327 37.989 L 197.462 37.989 L 194.337 37.5 L 193.653 34.571 L 
193.653 24.512 L 216.456 24.512 L 216.456 12.207 L 215.723 8.106 L 212.647 
4.981 L 207.716 4.395 L 197.12 4.395 L 192.237 4.981 L 189.161 8.106 L 188.429 
12.207 L 188.429 35.401 L 189.161 39.502 L 192.237 42.579 Z M 135.548 44.19 L 
140.43 44.776 L 153.516 44.776 L 158.546 44.19 L 161.622 41.114 L 162.305 36.914 
L 162.305 12.305 L 161.622 8.204 L 158.546 5.079 L 153.516 4.395 L 140.43 4.395 
L 135.45 5.079 L 132.325 8.204 L 131.739 12.305 L 131.739 36.914 L 132.325 41.114 
L 135.548 44.19 Z M 153.223 39.6 L 140.723 39.6 L 137.55 39.112 L 136.817 36.182 
L 136.817 12.793 L 137.305 10.108 L 140.723 9.571 L 153.223 9.571 L 156.641 
10.108 L 157.13 12.989 L 157.13 36.377 L 156.446 39.112 L 153.223 39.6 Z 
M 211.231 19.385 L 193.653 19.385 L 193.653 12.793 L 194.044 10.01 L 
197.462 9.473 L 207.423 9.473 L 210.743 10.01 L 211.231 12.891 L 
211.231 19.385 Z" 
vector-effect="non-scaling-stroke"/>
</g>
</svg>