<svg width="58.205" height="66.895" viewBox="0 0 58.205 66.895" xmlns="http://www.w3.org/2000/svg"><g id="svgGroup" stroke-linecap="round" fill-rule="evenodd" font-size="9pt" stroke="#000" stroke-width="0.25mm" fill="#000" style="stroke:#000;stroke-width:0.25mm;fill:#000"><path d="M 36.622 66.895 L 21.583 66.895 A 29.077 29.077 0 0 1 15.97 66.379 A 21.517 21.517 0 0 1 10.157 64.38 Q 5.323 61.866 2.662 57.618 Q 0.001 53.37 0.001 48.291 L 0.001 18.604 A 17.187 17.187 0 0 1 2.662 9.253 A 18.53 18.53 0 0 1 8.699 3.343 A 22.491 22.491 0 0 1 10.157 2.515 Q 14.991 0 21.583 0 L 36.622 0 A 29.155 29.155 0 0 1 42.24 0.517 A 21.71 21.71 0 0 1 48.072 2.515 A 20.115 20.115 0 0 1 52.94 5.987 A 17.596 17.596 0 0 1 55.567 9.253 A 17.305 17.305 0 0 1 58.204 18.604 L 58.204 48.291 A 17.342 17.342 0 0 1 55.567 57.618 A 18.242 18.242 0 0 1 49.536 63.552 A 22.269 22.269 0 0 1 48.072 64.38 Q 43.214 66.895 36.622 66.895 Z M 19.288 44.19 L 24.22 44.776 L 35.987 44.776 L 41.7 44.092 L 40.479 38.819 L 35.889 39.6 L 24.512 39.6 L 21.29 39.112 L 20.606 36.182 L 20.606 12.696 L 21.095 10.01 L 24.512 9.473 L 35.694 9.473 L 40.723 10.303 L 41.7 5.079 L 35.987 4.395 L 24.22 4.395 L 19.19 4.981 L 16.114 8.106 L 15.382 12.207 L 15.382 37.012 L 16.114 41.114 L 19.288 44.19 Z" vector-effect="non-scaling-stroke"/></g></svg>